<svg id="Layer_1" data-name="Layer 1" xmlns="http://www.w3.org/2000/svg" viewBox="0 0 822.134 695.751"><title>1</title><g id="Character_dancing" data-name="Character/dancing"><path id="Accent" d="M520.405,461.087c-1.6,23.6-33.6,35.8-53,40.9,3.9-23.1,8.9-47.1,5.8-70.6-1-7.7-2.4-15.4-3.8-23.1-.5-2.8-1.1-5.7-1.7-8.5-.1-.7-1.3-3.7-.9-4.4.6-1.2,6.1-1,7.5-1a26.012,26.012,0,0,1,10.3,2.5c6.9,3,12.6,8.1,17.4,13.8,11.1,13.5,19.6,32.6,18.4,50.4m-37.1-160.2c-18.6,11-40.9,16.9-62.1,19.8-32.3,4.4-65.2-.7-96.8-7.7-7.7-1.7-15.5-3.6-23.1-5.7a109.39,109.39,0,0,0,18.2,62.3c10.2,15.4,23.4,28.3,35,42.6,10.8,13.3,19.5,28.3,19.9,45.8.2,7.3-.4,14-6.6,18.8s-14.5,6.5-22,7.6c-18.9,2.7-38.6,1.3-57.4-1.7-3.6-.6-7.3-1.2-10.9-2.1-4.1-.9-5.5-2-8.9,1-7.4,6.6-10.7,16.5-12.4,26a139.116,139.116,0,0,0,2.4,56c4.3,16.9,24.8,26.2,40,30.3,45.7,12.3,96.2-4.7,131.3-34.9.8-.7,1.5-1.3,2.3-2a170.8,170.8,0,0,0,8.2,15.2,67.462,67.462,0,0,0,6.9,9.9,12.94,12.94,0,0,0,3.3,3.3c2.4,1.3,4.8.4,7.6-.1,20-3.5,40-8,59-15.3,28.9-10.9,54.9-29,68.6-57.5,6.9-14.4,10.5-30.2,12.3-46,2-18.2,2.4-36.7-2.7-54.4-9.4-32.4-33.2-58.7-59.4-79-16.1-12.5-33.9-23.9-52.7-32.2" fill="#d9ff00" fill-rule="evenodd"/><g id="Ink" fill="#24b18e"><path id="ink-2" data-name="ink" d="M810.505,86.087c-4.2,1.7-8.8,2.1-13.3,2.5-3.5.3-6.3,1.7-9.6,1.8a215.3,215.3,0,0,0-27.8,2c-9.3,1.4-17.8-.4-25.1,6.5-2.6,2.5-5.9,5.3-4.3,9.3.7,1.8,1.7,3.1,2.3,5.1a49.74,49.74,0,0,0,2.5,6.4c1.9,4.1,11.2,19.2,3.6,21-8.2,2-19.4-.3-27.3-2.6-4.6-1.3-9.2-2.9-13.7-4.4-3.6-1.2-8.4-1.9-11.7-3.8-2.2-1.3-2.7-3.4-4.1-5.5a63.023,63.023,0,0,0-8.6-10.1c-7.1-6.5-16-10.9-24.8-14.7a10.2,10.2,0,0,0-2.2-.9c-.7-.1-1.4.6-1.8.5-1.2-.2-1.6-1-2.9-1.7-1.7-1-8.7-4.2-10-1.7,1.1-3.4,2-2.4,5.1-1.9,1.4.2,2.3-.4,3.5-.3,1.1.1,1.6.7,2.5.9a29.716,29.716,0,0,0,5.2.1q.75-1.65,2.1,0c.5.2,1,.3,1.5.5a25.944,25.944,0,0,0,5.6.5c2.8.2,10,3.6,11.4.2,1.5-3.7-3-4.6-3.8-7.1-.7-2.5,2.7-4,4.1-5.5,1.6-1.7,2.5-3.2,4.4-4.7a15.274,15.274,0,0,0,3.3-2.9c.7-1.1.7-2.8,1.7-3.8,1.1-1.1,1.3-.3,2.3-.9,2-1,1.1-1,2.3-2.4,1-1.2,1.8-1.2,3.1-2.1,2-1.3,2.7-4,4.6-5.4,1.4-1.1,3.6-1.1,4.8-2.2.7-.6.5-1.7,1.1-2.3,1.2-1.2,2-.7,3.5-1.1,2.5-.7,3.3-2,5.2-3.7,1.7-1.5,2.8-1.5,4.9-2.1,2.9-.8,4.8-3,7.4-4.3,2.5-1.2,5-2.1,7.5-3.3,1.8-.9,3.5-1.5,5.2-2.5.6-.3.6-1.5,1.3-1.7.8-.2,1.5,1.2,2.4,1.3,1.8.2,3.9-1.9,5.1-3.1.5-.5,1.2-1.9,1.9-2.2,1.4-.6,2.2.6,3.5.1,1.8-.7,1.1-2.6,2.1-3.6.9-.9,2.9-.9,4.6-.6,6.8,1.2-3.8,5.9-5.7,6.9-3.3,1.6-27.5,13.4-21.8,19.3,3,3.1,10.3.8,13.6,0,5.7-1.4,11.6-4.2,17.5-4.9.7-.1,2.9.4,3.5.2,1.3-.5,1-1.5,2.1-2.1,1.6-.8,4.9-.8,6.6-.6,1.3.1,2.7.9,4,.8,1.4-.1,2.8-1,4.3-1.2,2.5-.5,5-.2,7.5-.2,3.6.1,10.7.6,5.5,5.4-4.2,3.8-11.4,5.5-16.7,7.2-7.8,2.5-15.5,4.7-23.2,7.5-5.3,1.9-16.5,5.3-10.2,12.5.6-.6,1.2-1.2,1.9-1.8.7.7,1.5,2.2,2.7,2.2,1,0,.6-1,1.5-1.3,2.9-1,6.9-.9,9.9-1.1,7.6-.5,15.3-1.5,22.9-1.8a87.093,87.093,0,0,1,21.6,1.6c1.5.8,18.5,5.2,11.9,7.8Zm-62.5,74c.4,3.2-1,5.8-1.4,8.9-.5,3.7-.1,7.1-1.2,10.8-2.1,7.2-3.5,14.7-5.8,21.9-3.9,12.7-10.2,23.9-16.7,35.5-3.3,5.9-8.3,10.7-12.9,15.7-4.7,5-8.4,10-14,14.1-11.2,8.3-23.2,15.6-36.4,20.1-13.8,4.7-28.4,6.1-42.9,5.5-6.5-.3-13.3.4-19.6-.7-6.8-1.1-14.1-2.5-20.7-4.1-12.2-3-23.9-8.1-35.8-12.7-13.3-5.1-25.2-11.6-37.4-18.9-3.2-1.9-6.6-2.9-9.6-5.2-2.5-2-5-3.9-7.7-5.7-3.1-2.1-6-4.3-9.1-6.3-1.9-1.2-4.5-2.3-5.5-4.5-1.3-2.9.3-6.6,1.1-9.5,1.1-3.7,2.3-7.4,3.6-11,2.2-6.2,7.9-15.6,4.8-22.2-6.6,4.1-9.5,12.1-12.3,18.9a74.657,74.657,0,0,0-6.2,25.1,128.973,128.973,0,0,0,8.4,52.9c1,2.5,2.6,5.1,1.4,7.7-1.3,2.8-4.8,5.1-7.5,6.3-8.5,3.8-17.1,4.9-26,7-2.4.6-5.1,2.3-7.4,2.5-1.5.1-2.8-.4-4.6-.3-1.8,0-3.2,1-4.7,1.1-1.4.1-2.6-.7-3.9-.6-3,.2-3.5,5.2-5,.8-.3.2-1.7,1.8-1.9,1.8-.4,0-1.2-1.2-1.6-1.5a8.165,8.165,0,0,0-2.7-.6,16.736,16.736,0,0,0-5.9.2c-3.5.8-7,.5-10,.4-.7,0-1.2.5-2,.5-.4,0-.9-.7-1.3-.8-2.4-.6-4.8-.2-7.2-.3-5.7-.3-11.1-.5-16.6-1.7-11.3-2.6-22.8-3.1-34.2-5.4-5.8-1.2-11.4-1.8-17.1-3.4-2-.6-4.1-.8-5.8-1.6-1.7-.7-1-1.7-3.7.2-1.2-2.9-1.3-2.6-4.2-3.6a22.869,22.869,0,0,1-4.5-2c-.1-.1-1.8-4.5-2-5-.7-2.6-.1-5.6.2-8.3.7-6,1.7-11.9,1.7-17.9,0-2.7.5-2.7,1.3-4.7.3-.6,1-.6,1.1-1.5.1-1.3-1.2-2.1-1.1-3.6.2-2,2.2-4,2.9-5.8.8-2.2.8-4.6,1.3-6.9.7-3.1,2-5.9,2.6-9,.6-2.6.6-4.7,2-6.9s1-4,2.1-6.3c1-2,2.3-2.8,3-5.2a56.436,56.436,0,0,1,7.8-16.9c3.2,12.6,6.6,25.7,15.4,35.6,3.6,4.1,8.3,8.3,13.8,9.5,6.2,1.4,11.2-2.2,15.2-6.6,9.6-10.3,13.6-21.9,14.2-35.9.1-3.5.1-7,.1-10.5,0-1.6-.8-5.5.2-6.8,1.2-1.4,4.5-.5,6.2-1.5,2.1-1.2,4.5-4.3,3.5-6.8,5.7,2.6,11.1,6,17.4,6.7a35.8,35.8,0,0,0,7.4-.3c-.1,0,1.7.4,1.8.4a1.137,1.137,0,0,1,1.4-.4,1.087,1.087,0,0,1,1,.7c9,.9,18.1-3.5,25.8-8.3,4.5-2.8,9.4-6.8,10.7-12.2.5-1.9.1-3.7,2-4.7,1.6-.8,4.7.4,6.4.5,6,.4,11.8-.1,17.6,1.6,3.6,1.1,9.7,8.7,12.2,3.3,1.1,1,.5,2.8,1.6,3.8,1,.9,4.3,1.5,5.7,2.2,2.1,1.1,3.4,2.6,5.3,4,2.3,1.7,4.7,1.8,6.9,3.8,7.7,6.8,16.7,11.7,25.3,17.4,10.2,6.7,19.2,14.6,30.2,20,11.2,5.6,22,10.2,34.3,13.1a106.427,106.427,0,0,0,16.9,2.8c2.7.2,5.2.1,7.8.9a12.345,12.345,0,0,0,3.6.8c.9,0,2.2-.5,3.3-.5,2.3,0,3.4-.1,5.5.7a17.721,17.721,0,0,0,6.9,1.4c3,.1,4.8-1.1,7.6-1.8,2.2-.6,4.2-.3,6.2-1.5a56.5,56.5,0,0,0,20.7-22.9c5.3-10.7,9.5-23.7,10.3-35.7a43.35,43.35,0,0,0-3.6-19.8c-.7-1.8-5.2-9.3-3.8-10.7,1.5-1.6,6.6,2,8,2.8,4.5,2.5,12.7,3.3,15.9,7.4.8-1.6,5.3.7,6.8,1.4,1.2.5,1.5,1.5,3,1.6,1.4.1,2.9-1,4.2-1.4-1,2.7,2.2,2.8,4.4,2.9a35.416,35.416,0,0,0,4.7-.2c2.7-.2,2.7-.8,5.2-2.2a7.687,7.687,0,0,0,.3,3c1.6-2.3,4.6-.7,6.7-1.7-1.5-2.3,5-3,6.6-2.5,4.3,1.5,1.7,6.4,2,9.3Zm-302.1,160.7c2.5-.8,5.1-1.5,7.7-2.2-1.9,1.8-3.9,5-6.7,5.5-3.3.6-4.7-2.2-1-3.3Zm-125.7,1.3c4.3.5,9,.1,12.7,2.7-1.8,2.1-3,4.3-6.1,3.1-2.5-1.1-4.6-3.9-6.6-5.8Zm143.2,115.3c-2.8-2.5-2.4-3.7-1.1-6.9.6-1.4,1.5-5.8,3.6-4.5.8.5,1.7,5.2,1.8,6.2.3,2.2-1,8.2-4.3,5.2Zm15.9-14.6c-1-3.7-1-7.6-1.9-11.4-1-4-2.3-7.9-2.7-12,14.9,2.6,23.3,17.4,29.8,29.7,3.4,6.5,6.8,13.8,8.1,21.1,1.3,7.1-.9,12.5-3.5,18.9-1.3,3.2-3.4,4.4-5.9,6.5-2.2,1.9-3,5.1-5.3,6.8-1.7,1.3-3.9,1.9-5.7,3.2s-3.5,2.5-5.3,3.7c-2.1,1.3-8.3,6.2-11.1,5.2-2.1-.8-1.2-3.3-.6-5a89.655,89.655,0,0,0,2.6-10.2,207.553,207.553,0,0,0,3.3-28.4c.3-9.4.7-19-1.8-28.1Zm-12.4,42.6c.2.5,1.2,4.4-.9,3.6-1.5-.6.7-2.9.9-3.6Zm8.7-157.4c1.8-.7,2.5,1.4,4,1.5,2,.1,2.5-2.2,4.6-2.3,5.3-.2,12.9,4.9,17.1,7.6-2.1,2.6-3,5.4-1.9,8.6.9,2.9,4.4,6.1,4.3,9.1s-3.9,5-5.1,7.7c-1.1,2.5-1.5,7.5,1.9,8.6,5.8,1.9,7.1-8.9,11.5-9,1.9,0,4.3,3.5,5.6,4.6a51.8,51.8,0,0,0,9.9,5.9c2.4,1.1,5.7,3.3,7.4.3,1.4-2.4.3-6.1-1.1-8.1-1.6-2.3-15.6-13-14.7-13.9.5-.5,4,.9,4.5,1.3,1.1.9,1.5,2.5,2.6,3.5,1.7,1.5,3.9,2.1,6,2.9,4.4,1.5,7.2,6.7,11.5,9.1,2.5,1.4,4,4.1,6.1,6.2,2.7,2.7,5.5,5.6,5.1,9.6-.3,2.8-.7,9.3-2.3,11.6-1.7,2.5-4.6,1.6-7.1,2.2-2.9.7-5.3,3-4.7,6.2.6,3.4,3.3,3.6,6.1,3.7,8,.2,5,5.3,7.8,10.9,1.5,3,4,4.2,5.8.7,1.4-2.8-1.1-7.3.4-9.8,1.8-3,11.7-2.2,13.8.1,1.6,1.7,2.4,4.1,3.9,6,2.4,2.8,3.3,6.7,4.8,10,1.5,3.6,2.8,7.3,4,11,.8,2.6,2.6,6.8-1.6,4.5-2.9-1.6-5.1-5.1-8.8-5.2s-5.8,3.7-4.7,7c1,3.2,5.8,4.6,6.3,7.9.6,3.6-5.5,7.2-7.3,9.8-4.3,6-.7,12.8,6.3,7.7,2.5-1.8,5.1-5.5,7.9-6.6,4.4-1.8,4.4,4.9,6.5,7.4,1.1,1.3,1.6,0,.9,2-.2.7-1.5,1-1.7,1.9-.1.7.5,1,.5,1.5a10.617,10.617,0,0,1-.3,3.9,52.222,52.222,0,0,0-.4,6.9c-.3,4.9-.4,9.6-.9,14.5-.3,2.7-.9,8.3,2.3,9.6-1.1,1.8-2.7,6.8-4.9,6.4.2,1.2.1,2.7,1.2,3.5.3-.7.5-1.4.8-2.2.6,1.6.1,1.8,0,3,0-1.4-1.3,1.9-.6,1.5-.6.5-1.4.8-2.3,1.4-1.3.9-1.9,2.2-2.9,3.4-1.8,2.2-1.7,4.5-3.2,6.8-2.2,3.3-5.1,6.6-7.4,9.9-1.9,2.7-5.5,4.2-7,7.1-1,1.8-1.4,4-3,5.3-2.4,1.8-5.5,3.6-8.1,5.5-1.6,1.2-2.8,2.9-4.5,4-.8.6-3.3,1.2-3.3,2.4-3.1-.9-5.3-4-7.7-5.9-1.6-1.3-5.5-3-5.3-5.5.2-2.1,3.2-4.7,3.9-6.9.6-1.9,1.4-5.4-.2-7-3.4-3.4-7.2,3.8-9.1,5.8-3.8,3.9-5.4,0-8.4-2.9-4.9-4.6-8,.2-6.3,5.9.9,2.9,4.2,5.5,4.4,8.4.2,3.2-3.3,4.9-4.7,7.5-1.3,2.4-1.9,6.7.5,8.7,2.7,2.2,5.1-.4,6.9-2.5,1.4-1.6,2.9-5.1,5.2-5.3,2.8-.2,7.4,4.9,9.6,6.4-3.2.9-5.2,3.7-7.9,5.4-3.5,2.2-8.5,2.8-12.5,4.3-3.7,1.5-7.1,2.6-10.7,4.4-4.2,2.1-9.4,2.7-13.9,4.2-4,1.4-7.8,3.3-11.9,4.5-4.6,1.3-9.4,2.1-14,3.2a55.1,55.1,0,0,1-12.7,2c-4.1,0-4-2.5-5.4-6-1.6-4-4.2-7.6-5.8-11.5-1.6-3.8.8-5.2,3.1-8.1,2.2-2.7,1.6-3.1,4.4-1.2,3.7,2.5,6.1.8,8.9-2.1,2.5-2.6,3.5-4.7,7.1-2.9s7.1,4.7,11,5.8c3.1.9,5.4.3,5.9-3.1.6-3.6-1.5-6.2-4.1-8.4-2-1.6-6.3-3.6-7.1-6.3-.8-2.8,3.3-6.9,3.7-10.1.5-4-1.2-6.9-4.9-4.1-2.7,2-4.6,6.3-8.3,6.6,1.1-4.4,3.3-8.3,5.3-12.4,1.6-3.4,3.1-7.2,7.5-7.6,1.4-.1,2.4,0,3.7-.2,1.8-.3,4.2-.6,6.2-1.1,4.5-1.1,8.5-4.6,12.7-6.6,1,2.6,2.6,9.9,6.5,5.6,2.9-3.2-.3-8.6,2.3-12.1,5.5-7.3,17.4-1.9,24.6-5.7,3.1-1.6,5.7-6.8,1.3-8.4-2.6-.9-10,2.5-11.6,0-1.1-1.8,3.5-8.7,4.1-10.6,1.7-5.9,1.5-12.1,1.5-18.2,3.5,1.4,7.9,4.8,11.7,5.2,3.9.5,4.6-4.1,3.5-7.1-1.4-4.1-6.1-7.5-9.3-10.2-1.4-1.2-5.1-3.1-5.9-4.8-.8-1.8.3-2.7,1.2-4.3,1.4-2.5,4.8-8.9,1.1-11.3-3.4-2.2-5.3,3.9-7.5,5.2-3.7,2.2-4.9-2.8-6.4-5.4-2.6-4.6-6.3-8.8-9.6-12.9-3-3.8-4.8-6.4-5.3-11.2-.3-3.7-1.1-6.5,3.2-7.3,7.7-1.5,18.9,2.2,25.1-4.1,3.3-3.3.9-6.6-3.2-6.5a122.033,122.033,0,0,1-16,0c-2.9-.2-8.9.5-10.4-2.5-1.9-3.8,1.3-10-2.2-13.4-4.4-4.3-5.5,5.4-5.6,8.1-.1,2,.4,4.9-.8,6.6-1.1,1.6-3.2,1.6-4.9,2.1-4.2,1.4-6.4,6.6-.8,7.7,1.9.4,4.5-.2,6.1,1.2,1.6,1.5,1,4.1,1.2,6-3.9-4.6-12.1-2.5-17.4-4.2-2.8-.9-3.3-2.1-4.5-4.8-1.4-3.3-4.7-7.4-4.8-11.1-.1-3.1,2.5-5.4,3.7-8.1a20.931,20.931,0,0,0,1.8-8.5c-.4-6.2-11.5.1-13.8,2.5-4.2,4.3-9.3,9.8-7,15.9,2,5.4,3.1,8.5-3.9,8.1-2.6-.2-7.9.3-9.9-.7-1.5-.8-.9-2.2-1-4.3,0-1.8.1-4.5-1.1-6.1-4.1-5.5-5,8.2-7.3,9.7-3.6,2.3-11.1-.1-10.5,6.8.5,6.1,8.7,3.6,11,8.8,1.1,2.5.9,5.4,2.2,7.9,2,3.5,4.4,3.3,5.7-.3.9-2.5-.3-5.1.4-7.5,1-3.5,5.8-3.1,8.8-3.5a58.438,58.438,0,0,0,10.2-2.5c4.2-1.4,4,.9,4.7,4.1.8,3.8,2,7.4,2.8,11.3.7,3.6,2.6,7.4,2.9,11,.2,2.7-.7,2.5-3,4.1-2.5,1.7-5.2,6.2-8.1,6.9-4.3,1.1-8.7-8.8-12.6-3.7-1.7,2.2-1,6.8.2,9,1.6,3,4.5,3.7,2.1,7.1-1.8,2.5-4.1,4.5-4.3,8-.2,3.2,2,6.2,5.4,5.3,2.7-.8,4.3-3.6,6.4-5.3,3.6-2.9,6.5-.2,10.2,1.4,2.9,1.3,8.2,2.2,9.6,5.2,1.8,3.9-.5,5.4-3.9,4.3,1.3,4.4-.4,6.9-.9,11.4-.4,3.7-1.2,7-1.8,10.5-.7,4.7-.8,4.2-5.6,4.4-4.1.1-8.1,0-12.2-.2-3.6-.2-6.1.2-6.3-4.2-.1-1.9,1.1-8.5-2.7-7.7-3.4.7-2.4,6.7-3.5,8.9-1.6,3.3-4.4,2.3-7.4,3.1-3.1.8-5.6,3.1-4.8,6.7.9,3.8,4.3,3.5,7.3,4.4,4.6,1.3,3.6,8.2,6.3,11.9,1.1,1.5,2.3,3,4.1,1.8,3.4-2.3.2-7.8,1.1-10.6.9-2.9,4.1-2.3,7.1-2.7,4.4-.6,9.1-2.7,13.5-2.7-.8,2.6-3.2,4-4.1,6.7-.5,1.4,0,4.1-.7,5.3-.7,1.3-2.8,1.7-3.7,3.4-1.2,2.3-1.5,4.8-2.9,7.1-3.2,5.4-6,10.9-9.5,16.3a120.476,120.476,0,0,1-11.8,15.6c-4.3,4.7-5.6,2.4-9.4-1.4-1.5-1.5-4.7-3.3-5.2-5.6-.4-2.3,1.5-4.1,2.5-6,1.4-2.5,3.8-6.7,3.2-9.6-1.1-5.5-6.1-.4-8,1.6-3.3,3.6-5.1,7.4-10.1,4.6-3.2-1.8-7.2-6.8-11.3-5-3.8,1.7-2.7,6.6-.4,9,1.3,1.4,3.2,2.2,4.6,3.5,3,2.8,1.3,3.6-.1,6.7-1.1,2.6-1.3,7.6.8,9.7,4,4.2,7.2-4.3,10.9-4.4,1.8-.1,9.2,4.8,9.7,6.5.9,3.1-7,6.7-9.2,8.2-4.9,3.3-10.3,6.8-15.8,9-6.5,2.6-1.7-5.6-5.2-8.4-4.7-3.6-5,6.2-5.5,8.6-1.3,6.5-8.1,6.6-13.6,8.2-3.5,1-7,2.1-10.5,3-3,.8-6.4.7-9.3,1.7-2.6.8-4.3,2.5-7.2,2.5-.9,0-1.7-.3-2.6-.3-1.8,0-3.5,1-5.2.9-2.9-.2-1.6-1.1-2.6-3.1-.9-1.9-3.3-2.6-5.2-3.2-5.3-1.7-9.7-.2-10.5-7-.2-2.1.1-10.6-3.9-9.6-4.6,1.2-.6,11.3-3.4,13.8-1.4,1.2-3.5.6-5.2,1-2.8.6-4,2.7-7,2.5a16.663,16.663,0,0,1-7.1-2.4c-3.3-1.7-7.3-2.8-10-5.3-3.8-3.5-5.4-9-7.1-13.7a76.868,76.868,0,0,1-3.8-21.2c-.1-2.5-1.2-4.3-1.7-6.7-.5-2.5.9-3,1.3-5.3.3-2.3.2-4.7.6-7.2.7-3.5.9-7.1,1.6-10.7,1.1-5.9,2.8-11.7,4.2-17.5.4-1.8,1.2-7.6,3.4-8.1,1.6-.4,5.4,2,7,2.8,3,1.4,5.6,3.4,8.8,4.4,1.7.5,3.8.5,4.8,2,1.7,2.4.3,7.2,1,10.1.9,3.5,3.8,5,6.1,1.5,1.2-1.9.9-4.1,1.1-6.2.2-3,.3-3.7,3.6-3.5s6.5,1.5,9.9,1.6c3.1.1,6.1.1,9.2-.1a68.832,68.832,0,0,0,21.1-4.2c4.7-1.8,10.2-5.7,15.4-5.6,7.3.2,5.3,7,6.3,12,.6,3.1,5.8,12.6,7.8,4.9,1-3.8-2.3-9.3-.4-12.8,2.3-4.1,10.7-.7,14.5-1.6,3.1-.8,8.3-5.1,6.1-8.9-1-1.8-3-1.5-4.8-1.6-3.4-.3-6.8-.7-10.1-1.2-1.9-.3-4.8-.4-5.6-2.6-.7-1.9,2.4-6.7,3.1-8.5a45.178,45.178,0,0,0,3-17.2,52.99,52.99,0,0,0-.3-8.9c-.2-1.1-1.8-4.5-1-5.5,1-1.4,3,.4,3.9,1.4,1.6,2,1.1,1.9.1,4-1.4,3.1-4,9.5.5,11.9,4.7,2.5,6.4-5.9,10.8-5,2.1.4,4.1,3.2,5.8,4.4a28.556,28.556,0,0,0,6.4,4c3.8,1.5,8,.4,6.5-4.4-1.2-3.7-5-6.9-7.7-9.5-4.3-4.2-4.1-6-1.1-11,1.3-2.1,6.1-10.9.5-11.6-2.9-.4-6.1,4.4-7.7,6.2-2.7,3.1-4.2,4.5-8.2,2-3.9-2.5-5.7-4.5-10.4-4.7-5.4-.3-7.8-8.4-10.7-12.6-7.8-11.3-19.7-16.9-29.8-25.6-4.9-4.2-8.2-9.8-11.9-15-1.8-2.5-4.1-4.5-5.5-7.2-.9-1.7-3.4-5.8-2.7-7.8.8-2.5,5.1-4,6.9-5.8,1.5-1.5,2.3-3.3,4.7-2.8,2.1.5,4,3.4,5.7,4.6a38.144,38.144,0,0,0,5.5,3.3c3.4,1.7,7.5,2.6,7.7-2.5.2-4.4-3.8-9.1-6.7-12-2.1-2.1-5.3-4-4.9-7.4a19.144,19.144,0,0,1,2.5-6.1c2.9-4.9,11.7-1.9,16.5-1.6,5.8.4,12.1-.6,16.7,3.5,1.5,1.3,5,4,5.7,5.8.9,2.2-.5,3.1-1.3,5.2-1,2.7-1.7,8,1.2,9.9,4.8,3.1,7.3-6.1,12.3-4.1,4.8,1.9,8.1,7.4,13.5,8.3,7.1,1.1,3.1-7.7.6-10.3-3.2-3.4-9.4-6.8-7.3-11.8.6-1.4,1.9-4.4,3.1-5.3,2.3-1.7,6.1-.8,8.7-.7a100.2,100.2,0,0,0,19.7-1.7c2-.4,2.4-.6,3.8.8,1.9,2,3,4.7,5.2,6.7-3.3,3.5-8.1,7.7-5.8,13.1,1.9,4.6,6.2,2.4,9.1-.1,1.4-1.2,2.8-3.6,4.6-4.1,2.3-.6,5,1.5,6.9,2.6,2.9,1.6,9,6.4,12.3,3.6,4.3-3.7-.8-9.4-3.8-11.7-1.8-1.4-4.2-2.4-5.7-4.1-2-2.3-.8-2.6.4-4.7,2.2-3.8,1.4-8.7,5-11.6,2-1.6,4.8-2.7,7.1-3.9,2.4-1.4,4.8-3.8,6.9-4.7Zm36.4,14.7c-.9-.5-1.7-1.1-2.6-1.6,1.9-.9,3.3-.8,2.6,1.6Zm47.8,46c.3-1.8,1.7-4.9,3.6-3.3,1.2,1.1-.1,5.1,2.8,3.9.1,2.5-1.7,2.3,1,4.6-3.5-.3-8.4-.2-7.4-5.2Zm-136.7,214.2c.9-2.4.9-6.1,3.6-3.9.1-2.9-.5-12,4.7-11.6,2.1.2,2.1,2,2.7,3.7a67.586,67.586,0,0,0,4,8.1,35.328,35.328,0,0,0-15,3.7Zm1.7,32.9c3,2.2,4.5-.4,7.3-1.4,2.6-.9,5.3-.4,8.1-1,3.6-.8,7.7-.7,11.2-.7.9,0,2.6.1,3.5.2,1.6.2,1.4.5,3.1.9a12.5,12.5,0,0,1,1.9-.3,2.166,2.166,0,0,1,1.9,1c1.5.5,2,.2,3.4.5a14.761,14.761,0,0,1,8,5.5c4.4,5.4,4.6,13.6,4.5,20.3a54.188,54.188,0,0,0,0,5.7c.2,1.8,1.4,4.4.9,6.1-.8,2.6-3.1,2-5.9,2.2-1.6.1-3.3,1.1-4.5,1.2-1.3.1-1.8-.4-3-.7-3.3-.7-7.2.3-10.5,1.2s-6.3,1.8-9.7,2.5c-2.2.4-4.2.7-6.4.9-1.8.2-2.6,1.2-4.2,1.6-1.5.4-3-.2-4.6.1-2.1.4-3.6,2-5.5,2.7-2.7,1.1-6.9-.5-8.1,2.8-.5-3.2-3.5-2.3-5.8-2.6-3.7-.5-7.4-2.1-11-3.2-2.9-.9-13.1-8.9-15-5.7,0-.3.4-2.2,0-2.4-1.1-.8-1.1-.3-2.2-.8a10.306,10.306,0,0,1-3.8-2.6c-2.6-2.5-6.1-3.8-8.8-6-6.8-5.7-9.2-17.3-10.8-25.5-2.2,3.9-1.4-1.1-1-2.8.9-3.9-.3-5.8-.5-9.6-.2-3.5,1.3-4.2,4.5-4.5a87.862,87.862,0,0,0,11.4-2,41.775,41.775,0,0,0,10.4-3.8c3-1.7,6.1-2.3,9.2-3.8,3.4-1.6,6.7-3.3,10.1-4.9,1.5-.7,8.3-5.8,9.4-5.5,2.4.6.1,4.8-.6,5.9-1.9,2.8-5,4.1-7.8,5.9-2.5,1.6-10.1,9.2-2.4,8.5,5.1-.5,8.6-5.9,11.9.2,1.2,2.2,2.9,3.9,1.5,6.1-1.9,3.1-7.2,4.6-10,6.7-2.4,1.8-7.3,10.2-2.4,11.1a5.75,5.75,0,0,0,4.7-1.2c.7-.7.7-2.3,1.4-2.8,1-.7,3,.2,4.2-.2,1.7-.6,2-1.5,2.7-3.1,1.8.8,1.8,1.9,3.8.9.7-.3.9-1.6,1.7-2,1-.5,1.4,1,1.9.8,1.4-.2,1.4-.9,1.9-2.4Zm-106.4-24.8c-3,.2-6.2.5-8.8-1.4,3.1.2,5.8.9,8.9.2,1.2-.3,3.2-1.4,4.5-1,4.4,1.4-3.4,2.1-4.6,2.2Zm-8.3-261.6c0-1-.9-15.1,3.9-9.6,1.3,1.5-.1,3.5-.3,5.2a12.8,12.8,0,0,0,2.2,8c1.4,2.2,4,4.2,3.6,7-.3,2.5-2.9,4.7-4.2,6.8-3.1-4.8-4.9-11.5-5.2-17.4Zm-10.5-147.6a186.791,186.791,0,0,0-33,6.4c-10.5,3.1-20.4,8.1-30.3,12.8-2-8.7-4.2-17.5-6.2-26.2-1-4.2-1.9-8.4-2.8-12.7-.6-3-3-8.6-2-11.6.5-1.6,1.2-1.6,2.3-2.5a17.885,17.885,0,0,1,2.6-2.3,24.222,24.222,0,0,1,7.9-1.3c1.6.1,2.5.7,4.1.3,1.4-.4,2.6-1.5,3.9-2.1,3.4-1.5,7.6-2,11.2-2.8,3.5-.8,7-.9,10.5-1.7,3-.7,4.5-2.9,7.1-2.8a82.1,82.1,0,0,0,20.9-2.2c7.5-1.8,15.7-1.5,23.4-1.7,3.1-.1,5.2-.8,5.3,2.7,0,4.2-1.7,8.9-2.5,12.9a204.818,204.818,0,0,0-4.2,27c-.4,4.6-2.2,4.3-6,5.7-4,1.5-7.8,1.6-12.2,2.1Zm-58.6,92.8c2.7.4,2.4-7.1,2.6-8.6,6.5,12.3,13.9,24.2,19.7,37,1.3,3,2.6,6,4,9,1,2,3.2,4.7,3.1,7.1s-2,3.4-4.1,4.3c-2.3,1-3.1,1.5-4.7.3-1.9-1.4-3.5-5.6-4.7-7.6-1.8-3.1-3.5-6.3-5.3-9.4-3.2-5.7-7-11.1-9.6-17.1-2.5-5.6-6.2-10.4-8.9-15.9-2.6-5.4-6.3-10.6-9.3-15.9,3-1.3,6.8-4.4,10.3-4.3,3.6.2,3.5,3.6,3.6,6.5.2,2.9-.9,13.9,3.3,14.6Zm8.8,55.7c-1.6,1.9-5.3,3.1-7.6,4.1-3.1,1.5-6.3,2.8-9.4,4.3-10.2,5-20.4,9.5-30.8,14.1q-8.1,3.6-15.9,7.5c-2.7,1.4-8.8,6.2-12,6.3-3.6.1-3.7-7.2-4.5-9.9-.7-2.3-1.9-4.1-2.8-6.3-.3-.9-.1-1.6-.6-2.4-.6-1-2.3-1.8-3.1-2.7-3.6-3.7-6.6-8.4-9.7-12.5-2.8-3.8-7.6-8.5-8.9-13.2-2.6-9.1,12.7-14.2,18.6-17.9,10.3-6.4,20.6-13,30.4-20.2,4.5-3.3,8.8-6.6,13.3-9.9,2.1-1.5,7.9-7.4,10.6-5.3,1,.8,1,2.9,1.4,4.1a34.407,34.407,0,0,0,3.7,6.8c1.2,2,3,4,3.8,6.2.9,2.6.9,4.1,2.6,6.4,3.1,4.2,4.6,9.1,7.4,13.5,2.8,4.2,5.4,7.3,7.2,11.9,1,2.7,2.7,5,4.1,7.5.7,1.2,1.4,2.3,2,3.5,1.3,2.3,1.7,2.3.2,4.1Zm-87.7,35.7c-2,1.4-4.9-1-6.8-1-.8,0-1.6.6-2.2.6-1.7,0-3-1.2-4.6-1.7-7.1-2.4-15.5-2.5-21.5-7.4-12-9.7-6.3-29.2-4.1-41.8.4-2.6,1.2-6.1-.8-8.2-2.3-2.3-5.7-.9-7.8.9-2.1,1.9-3.6,4.6-5.4,6.8-2.8,3.6-5.9,6.9-9,10.2-11.1,11.7-22.8,25.2-36.5,33.8-5.7,3.6-10.9,8.4-17.1,11.2-7.5,3.3.2-9.4,1.6-11.5,8.9-13.5,21.7-24.2,32.6-36,2-2.2,4.9-5.2,5-8.5.1-4.8-4.2-4.4-7.6-3.1-3.2,1.3-4.7,4.4-7.3,6.5a90.073,90.073,0,0,1-10.4,7,265.91,265.91,0,0,1-23.7,12.3c-3.8,1.8-7.5,3.5-11.3,5.2-1,.5-7.2,4.4-6.9,1,0-.5,4-5.3,4.5-5.4,2.4-.9,3.6,1.8,5.8-1.7,1.5-2.5,1.8-3.8,3.9-5.7.4-.3.6-1.1.9-1.7,0,.2,1.6-1.4,1.3-1.1a19.2,19.2,0,0,0,1.4-1.5c1.7-2.2,5-2.3,6.4-4.8.6-1,.2-2.2.9-3.2,1-1.3,3-1.9,4.2-3.1,1-1,1.7-1.8,2.3-2.5.4-.4,1.1-.7,1.6-1.2,1.2-1.2,1.1-2.3,2.8-3.3,1.5-.9,2.2-.1,2.7-2.3,1.8,1.2,1.6-.5,2.4-1.8,1-1.6,2.2-2.3,3.5-3.5,2.9-2.6,5.7-6.4,8.2-9.6,6.2-8,11.3-17.4,13.1-27.5.4-2.4.7-4.8.9-7.3.1-1.3-.3-4.4.5-5.7,1.2-2,3.6-1.2,5.4-2,.6-.3,1.2-1.1,1.8-1.3.8-.3,1.8,0,2.6-.3.3-.1.4-1,.9-1.2a10.872,10.872,0,0,1,3.1.2,21.214,21.214,0,0,0,6.6-1.1c2-.7,3.6-2.1,5.6-2.7a10.073,10.073,0,0,0,3,.1c.2-.8.3-1.7.5-2.5,1.3.9,5.7,2.1,7.1,1.9,2.2-.3,1.7-2.3,3.6.3,1.1-.9,2.1-1.9,3.2-2.8.8,3.4,6.3,1.7,8.9,1.9,3.5.3,6.3-.4,9.5.8,3.9,1.5,7.4,3.1,11.6,3.5,3,.3,4.2,1.7,7.1,2.5,3.9,1.1,4.2,2.4,3,6.4-1,3.2-1.8,5.7-.4,9,2.6,5.9,9.5,8.3,14,12.3-10.5,7.4-20.8,14.6-31,22.4-4.2,3.3-8.8,6.6-11.2,11.5-2.2,4.6-3.5,10-4.8,14.9-3.1,11.2,5.6,18.7,14.5,23.6,1.7,1.5,14.4,17.4,11.9,19.2Zm-17.3,13.6c-.6-2.2-.5-2.7,1.5-3.5.8-.3,3.8-.7,4.3.4,1.1,2.4-4.7,2.4-5.8,3.1Zm88.3-155.9c.7,4.8,1.5,9.5,2.1,14.3.4,2.6,1.2,5-.8,7-1.1,1.1-3.8,1.6-5.3,2.2-2.1.9-4.1,1.9-6,2.9-3.5,1.9-7.2,3-10.7,4.6-1.5.7-2.4,2.2-3.7,3.1-1.8,1.3-4,2-5.8,3.3-3.3,2.3-6.3,5-9.7,7.3-3.8,2.6-4.5,1.8-6.6-2.1-1.9-3.5-4.2-5.1-6.9-7.8-1.1-1.1-4.8-7.1-1.6-7.6.8-.1,3.7,1.1,4.3,1.5,1,.6,2.5,4,3.3,4.1,1.4.1,3.3-4,4.2-5.1a192.161,192.161,0,0,1,19.1-20.2,85.95,85.95,0,0,1,11.2-8.7c2.8-1.8,5.3-4.4,8.1-6.2a5.64,5.64,0,0,1,2-1.1c1.5-.7,2-.1,1.6,1.7,1,1.8.9,4.8,1.2,6.8Zm-128.4-6.3c1.4-1.5,3.2-2.6,4.5-4.2.7-.9,1.2-2.5,2-3.1,1.4-1,3.4-.6,5-1.9s2.9-2.9,4.5-4.3c3.3-3,6.8-5.8,10-8.8,1.9-1.7,3.8-4,5.4-5.1a7.1,7.1,0,0,1,1.4-1c1-.5,1.5,0,2.9-.5,1-.3,1.6-1.5,2.4-2.1,1.8-1.4,4.2-1.9,6-3.2s2.6-3.4,5-4.4c2.9-1.3,5.1-.3,7.2-2.8.9-1,1.1-2.3,2.5-3,1.6-.8,3.1,0,4.6-.8,1.1-.6,1.8-1.9,2.9-2.5,1.9-1.2,4.1-1.3,5.9-2.8,1.5-1.2.7-1.1,2.5-1.6a22.676,22.676,0,0,0,2.5-.6c2.7-.9,7.2-2.1,8.8-4.7.8,1.2,1.1,1.4,2.4,1.1a17.044,17.044,0,0,0,1.9-1.9.842.842,0,0,0,1.4.1c2.9-1,5.5-2.7,8.4-3.6a7.459,7.459,0,0,1,1.2.7c.6,0,.8-.2.7-.8a19.3,19.3,0,0,0,3.4-1.1c2-.9,4.1-2.9,6.5-2.2,3.9,1.2,4.1,9.1,4.7,12.3,1.6,7.7,3.3,15.5,5,23.2.7,3.1,1.3,6.3,2.2,9.4.6,2,2,5,1.5,7.1-.6,2.6-3.2,3.5-5.4,4.7a96.427,96.427,0,0,0-8.6,5.5c-11.9,8.2-20.8,19.5-29.2,31.1a22.421,22.421,0,0,0-8.4-6.5c-1.8-.7-3.5-.1-5.3-1a29.826,29.826,0,0,1-3.6-2.6,80.2,80.2,0,0,0-25.2-10.7c-17.8-3.9-35.2,2.1-52.5,5,3.5-5.2,8.8-8.2,12.9-12.4Zm119.2-130.8c3-9.9,8.2-19.6,15.5-27a40.313,40.313,0,0,1,12.9-9.1c4.2-1.8,9.2-3.6,9.2,2.3-.1,12.7-3.1,25.2-3.4,37.9-.3,12.4,1.7,22.4,9.3,32.5-4.8,1.1-9.5,2.2-14.3,3.4-3.6.9-7.4,1.9-10.8,2.5a65.771,65.771,0,0,0-9.8,2.1c-2.2.8-5.8,3.1-8.2,2.6-4-.8-3.1-15.4-3.3-18.9a75.367,75.367,0,0,1,2.9-28.3Zm74,19.2c5.5-6.7,11.3-14.5,20.6-15.8,9-1.2,12.3,9.6,11.7,16.9-.2,2.5-.6,8.9-2.3,10.8-2,2.2-5.5.5-8,.2-10.8-1.5-22,1-32.8,1,3.5-4.4,7.2-8.7,10.8-13.1Zm44.5,26.7c3.8.5,6.8,1.1,5,5.4-3.6,8.6-6.4,16.8-3.3,26.2,2.4,7.2,10.2,15.9,17.9,17.3,2.7.5,6.8-.4,8.4,2.4,1.5,2.4-.1,9.8-.3,12.5-.6,10.1-3.2,20.2-9.8,28.1-5.8,7.1-13,12.6-21.4,5.9-7.2-5.6-11.4-15.7-13.5-24.3a72.12,72.12,0,0,1-1.5-13.9c-.2-4.2-1-6.8,3.7-7.7,1.3-.2,4.4-.2,4.4-2.1,0-2.6-3.4-1.6-4.7-1.7-5-.5-2.7-6.4-2.2-10.1.8-6.4,2.1-12.8,3.3-19.2,1-5.4,1.1-12.6,3.3-17.6,1.3-3,8.2-1.5,10.7-1.2Zm9.3,19.1c.6-3.5.9-7.9,4.4-9.8,3.8-2.1,5.7,1.3,7.6,4.2,5,7.5,10.5,14.5,11.4,23.9.1,1.1.6,3.3-.5,4.1-.5.3-1.6-.6-2.4-.5-4,.3-6.8,1.3-10.7-.9a19.808,19.808,0,0,1-9.8-21Zm29.8,21c-.8-8.2-4.6-15.4-8.8-22.3-2.1-3.4-6.1-7.1-7.5-10.7-.8-1.9.6-4.3,3.4-3.5,1.4.4,4.1,4.1,5,5.4a85.824,85.824,0,0,1,6.3,10.5c1.9,3.9,7.7,17.9,1.6,20.6Zm-25-81.2c.4-7.7.5-16.5,5.5-22.9,3.9-4.9,10.9-7.1,16.6-9,7.7-2.6,17-3,25-2.1,7.1.7,12.5,5.6,16.8,10.9,4.5,5.4,7.9,12.4,11,18.6.8,1.6,7.3,11.7,2.9,11.4-1.7-.1-3.3-3.5-4.6-4.5-1-.8-2.3-.7-3.2-1.3-1-.7-.8-1.3-1.6-2.1-5.4-5.7-10.3-2.4-16.1.6-.3-2,.2-5.7-1.5-7.2-2.2-1.9-4.5,1.1-6,2.6-1.4,1.4-3.2,3.8-5,4.6-2.3,1-1.5-.1-3.6-.9-4.1-1.6-7.2,3.2-9.3,5.9-.8,1-2,3.6-3.4,3.9-1.3.3-1.5-.7-2.7-1-3.3-1-4.2,1.3-5.2,4.2a64.214,64.214,0,0,1-3.9,9.4c-3.1,5.4-4.4,7.1-2,13-3.5.5-4.3.9-6-2.2a16.832,16.832,0,0,1-2.2-9.6c.4-7.7-1.9-14.4-1.5-22.3Zm82,36.7a52.623,52.623,0,0,1,6,23.6c0,3.8-.2,8.4-2,11.8-1.7,3.3-5.2,4.9-8.5,6.3-7.9,3.4-16.7,3.3-25,1.8-4.3-.8-8.5-.3-12.1-2.9-2.8-1.9-6.1-3.8-6.9-7.4-.3-1.5.2-2.7.1-4.2a4.441,4.441,0,0,0-.1-2c-.5-.3-1-.5-1.5-.8-.4-1.1.4-2.3.2-3.5-.2-1.4-1.4-2.5-1.9-3.8-1.5-3.5-.4-5.4,2.4-7.8.7-.5,1.3-1,2-1.6.6-1,1.3-1,2,0,1.3,0,1.3.4,2.7,0,3.1-.9,5.6-4.2,8.6-5.3,1.2-.4,2.9-.1,3.9-.9.8-.7.3-2.3,1-3,2.4-2.3,6.1-.1,8.3-3.5,1.8-2.7,1.4-6.6,1.6-9.7,5.5,1.1,7.9,6.3,12.4,9,.9-3.5,1-3.4,4.5-4.3-1.6,3,.9,5.8,2.3,8.2Zm4.2-36.8c1,1.3,1.8,4.6,0,4.9Zm4.7,11.8c8.4,0,13.8,10.7,16.2,17.2,2.7,7.2,5.5,16.7.5,23.7-1.9,2.7-4.3,2.9-7.3,2.6-3.7-.4-5.6-1-4.2-4.9,2.7-7.4.7-16.9-4.1-23.1,6.6-1.3,2.4-7.4-.9-9.6-3.9-2.7-7-6-.2-5.9Zm-192.1,384.5c-2,5.3-4,10.5-5.7,15.9-1.6,5.1-.7,10.9-2.6,15.8-1.2-.6-1.5-1.7-2.6-2.3-.6-.4-1.8-.6-2.3-1a24.383,24.383,0,0,1-3.9-4.6c-2.2-3.8-.7-9.9.4-13.7a34.357,34.357,0,0,1,7.2-13.1c2.3-2.6,3.6-1.8,6.6-.5,1.9.7,3.8,1.2,2.9,3.5Zm-15,41.4c-1.6,3.2-4.5,5.8-6.2,9.1-1.8,3.4-3.2,7.2-5.5,10.3-2.4,3.2-4.5,2.6-7.7,4-1.2.5-1.7,1.4-2.6,2.1-1.8,1.3-3.7,2.1-5.6,3.3-1.3-3.2-5.3-19.5-10.5-19.1-4.5.3-2.2,8.8-1.6,11.3a45.354,45.354,0,0,0,1.8,6.3c.7,2.1,3.1,5.2,2.2,7.4-1.1,2.9-3.8,2.7-5.2.6-1.1-1.8-1.7-4.1-2.6-6.1-.7-1.7-4.1-10.9-7-9.4-2.8,1.4,1.6,10.3,2.3,12,1.8,4.2,5.2,8.3.7,11.7-6.8,5.1-15.2,9-22.8,12.7-4.4,2.2-8.4,5-13.1,6.8-4.3,1.6-9.3,1.9-13.5,3.8-1,.5-.3,1-1.8,1.3-1.3.2-3.5-.4-4.8-.4a49.951,49.951,0,0,1-6.7-.1c-1.3-.2-4.1-1.5-3.7.7-1.8-.5-2.5-2.3-3.8-3.4a30.675,30.675,0,0,0-3.9-2.3c-2.7-1.6-4.7-3.5-5.5-6.6-1.9-7.3,2.1-14.9,7-19.9,2.8-2.9,6.1-5.3,8.7-8.5a21.584,21.584,0,0,1,2.7-3.3c1.4-1.1,3.3-1.2,4.7-2.3,1-.8,1.3-2.1,2.4-2.9,1.6-1.1,3.4-.7,4.9-2.1.8-.8,3.8-4.8,3.6-5.9.8.3,1.6.5,2.4.8.5-2.4,4.7-5.4,6.8-6.6,1-.6,3.1-.6,3.9-1.2,1-.8,1-2.6,1.8-3.7,2.4-3,7.3-4.4,10.4-6.5a109.017,109.017,0,0,0,11.4-8.9,102.43,102.43,0,0,0,18.9-22.1,68.465,68.465,0,0,0,5.6-10.3c.9-2.2,1.8-6.2,4.1-7.5,2.4-1.3,7.8.5,10.4.7,3.9.3,9.9.1,13.4,2,3.7,2,.7,3.7-1.2,6.1a39.407,39.407,0,0,0-5.9,12.2c-1.1,3.3-1.3,6.5-2,9.8-.7,3.5-.7,8.2,1,11.4,1.6,3.1,13.9,9.1,12.1,12.7Zm-146.4,64.4c-8.3-11.4-1.4-28,6.7-37.2,9.8-11.1,23.9-17.3,35.4-26.3,13.3-10.4,27-20.1,38.8-32.3a133.81,133.81,0,0,0,15.9-20.1c4-6.1,6.9-14.2,15-15.1-4.8,6-5.1,14.5-8.7,21.2-3.9,7-9.7,12.9-15.5,18.3-12.4,11.4-25.8,21.8-39.2,32-6.8,5.2-13.5,10.6-20.3,15.8-6.1,4.7-12.5,8.7-16,15.8-6.1,12.3-6.4,30.5,7,38.1-7-1.4-14.8-4.3-19.1-10.2Zm727.3-512.2c-2.5-4.9-7.1-6.7-11.7-8.6-4.5-1.9-8.7-4.2-13.7-4.8-2.2-.3-8.6.4-8.9-2.9-.2-2.7,6.4-5.4,7.9-7.5,2.3-3.1,3.8-8,2.9-11.9-.8-3.7-4.4-4.8-7.7-5.5-10.3-2.1-21.3-.5-31.7.3,1.3-1.8,3.1-3.2,4.1-5.4l1.6,3.4a51.782,51.782,0,0,1,3.1-5.7l2.4,2.7c-1.3-4.6,3.1-4.6,2.6-8.4-.2-1.5-1.2-2.2-1.5-3.4-.5-2.4,1.4-3.9-.7-6.1-2.4-2.5-6.2-1.5-8.9-1.3-.3,0-.8.7-1.3.8-.6.1-1-.8-1.7-.7-2,.1-3.8,1.7-5.9,2.2-9.4,2.2-18.8,6.2-27.9,9.9-9.2,3.8-18.2,8.2-26.2,14.2-8.6,6.4-14.8,14.5-21.6,22.6-3.2,3.8-6.6,7.4-9,11.8-1.3,2.3-2.4,9.3-4.7,10.4-2.5,1.1-8.7-2-11.2-2.6a68.3,68.3,0,0,0-18-1.7c-4.9.2-10,.1-14.8.7-2.8.3-9.8,3.5-10.2,6.9-.2,1.5,1.6,2.8,2,4.3.6,2.2-.4,4.5.3,6.7,1.4,4.5,7.9,6.1,11.8,7.5,10.8,3.9,21.7,7,32.5,10.5,4.7,1.5,8.8,4,13,6.4,3.5,2,6.8,4.1,3.2,7.9-3.4,3.6-3,5.1-2,10,1.1,5.2,1.4,10.5,2.8,15.7s4,10.1,3.5,15.6-2.8,11.1-4.9,16.1-4.5,10-6.8,15c-2.1,4.6-4.5,9.3-9.4,11.2-9.5,3.7-21.6,3.1-31.4,1.8a151.571,151.571,0,0,1-33.3-8.2c-10.2-3.8-21.4-9.7-29.8-16.7-4.5-3.7-9.4-6.5-14.1-9.8-4.8-3.4-8.5-7.9-12.7-12-8.3-7.9-18.5-13.4-29-17.7-11.8-4.9-24-4.4-36.6-4.9,2-3.9,4.5-7.6,5.4-11.9,1-4.5.3-9.4-.3-13.9-1.2-8.7-3.5-16.4-9-23.5-2.5-3.2-5.5-5.7-9.7-6.2-2.5-.3-7.3,1.7-9.1-.5-.8-1-.6-3-1.1-4.1a33.018,33.018,0,0,1-1.8-3.2,129.843,129.843,0,0,0-7.4-13.7c-1-1.8-1.9-4.5-3.3-6-.8-.8-1.8-1.2-2.2-1.8-.8-1.1-1.2-3.2-1.9-4.5a29.169,29.169,0,0,0-4.3-6.1,27.269,27.269,0,0,0-9.9-6.9,12.649,12.649,0,0,0-5.7-.9c-.6,0-1.3.4-2,.4-1.5-.1-1.3-.7-2.5-.9-8.1-1.7-19,.7-26.6,3.6-8,3.1-14.5,7.1-19.4,14.4-12,17.8-9.2,40.9-4.1,60.5-3.1-.8-6.1-1.8-9.2-2.4-1.9-.4-4.5-.3-6.2-1.3-3.8-2.2-.7-7.9-.7-11.6.1-9.4-4.4-24.1-14-28-10.1-4.1-22.3,7.5-28.5,14-4,4.2-7.6,8.8-11.4,13.1-2.7,3.1-6.2,7.9-10.9,7.1-10.2-1.7-7.1-21.2-6.6-27.7.7-10.4,2.2-20.9,2.3-31.3,0-6.3-1.1-14.9-8.9-15.6-10.7-1-20.8,8.7-27,16.2-16.4,19.7-20.1,45.8-15.7,70.6.6,3.6,2.7,8.1-1.2,10.4-5.2,3-11.8,4.8-17.3,6.9-12.4,4.9-23.9,11.3-35.6,17.7-11.6,6.3-22.9,12.5-33.4,20.6a370.636,370.636,0,0,0-30.1,25.7c-4.7,4.6-9.3,9.3-13.6,14.3-4,4.7-7.3,10-11.7,14.3-3,3-8.5,6.9-9.1,11.5-.5,3.7,5.6,6.2,8.4,7.9,1.9,1.2,3.2,1.1,3.4,3.2.2,2.6-2.5,6.7-3.5,9.2a64.069,64.069,0,0,1-9.9,16.7c-9.4,11.5-20.7,21.3-31.4,31.6-10,9.5-19.8,18.9-27.1,30.7-1.8,2.9-6.3,8.8-2,11.6,1.1.7,4.5,1.3,5.6.5,1.4-.9.7-2.3,2.3-3.3-.4,3.1,13.9-3,15-3.6,3-1.5,5.7-3.3,8.8-4.7,1.8-.8,2-1.9,3.4-2.8.7-.5.8.2,1.8-.1.9-.3,3-.4,3.7-1.2,0,0,.7-2.1.1-1.7,2.4-1.7,3.9.9,2.4,3.3-4.3,7.1-9.8,12.4-11.5,20.9-.6,3.1-1.7,8.9.2,11.7.1.1.7-.2.8-.1a10.823,10.823,0,0,0,1.1,1.3c1.7,1.6,1.6,2.3,4.4,2.3a15.5,15.5,0,0,0,4.8-.7c.9-.4,1.3-1.5,1.9-1.8.7-.4.6-.6,1.2-.8.1,0,.4,1,.6,1,1.3-.3,1.9-1,3-1.7,3.3-1.8,6.5-3.9,9.6-5.7,3.1-1.9,5.5-4.5,8.6-6.7,3.3-2.3,6-4.1,8.6-7.3,1.8-2.2,3.9-3,5-4.1,1.4-1.3,3.8-6.3,6.1-6.9,1-.3,1.9.6,2.4.3.6-.4-.1-1.2.3-1.7a5.731,5.731,0,0,1,1.7-1.8c1.3-1,2.9-1.3,4-2.7,1.2-1.5,1.4-3.2,2.9-4.6,3.6-3.4,6.8-7,10.6-10.2-1.5,8.2-2.9,16.3-1.8,24.6,1.1,8,4.5,11.7,11.2,15.7a31.414,31.414,0,0,0,4.6,2.8c1,.4,2.4.2,3.1.4,2.4,1,1.6,2.9,1.9,5.2.5,3.4,3.7,6.1,5.7,8.8,1.7,2.3,4.8,7.4,7.7,8.2,2.6.7,5-2.3,7.2-3.6a96.878,96.878,0,0,1,10.3-4.9c6.7-3.1,13.2-6.8,19.8-10.1,3-1.5,6.1-2.1,9.3-3.1,3.9-1.2,7.1-3.4,10.8-4.9,6.7-2.7,13-6,19.6-8.9,13.7-5.9,28.6-10,40.8-19,5.5-4,12.6-4.5,18-8.4,5.7-4.1,2.2-10.3-.2-15.4-6.6-13.7-10.6-28-19.7-40.4q-7.05-9.75-13.2-20.1c-3.7-6.1-3.6-13-4.5-19.9-.6-4.6-1.2-9.2-1.9-13.8-.5-2.9-2-6.6-.2-9.2,2-2.8,6.7-4.1,9.7-5.5a115.328,115.328,0,0,1,11.2-5.4,184.283,184.283,0,0,1,27.4-8.3c2.8-.7,14.6-5.3,16.8-2.6-2.8,1.8-3.6,5.2-4.8,8.1-1.8,4.3-3.8,8.4-5.1,12.9-2.8,9.3-5.1,18.7-7.4,28.1s-4.9,18.8-5.6,28.4c-.4,4.9-.1,9.8-.1,14.8,0,5.3-1.1,10.4-.9,15.7.1,3.5.4,7.7,2.5,10.7,1.9,2.8,5.1,3.1,7.9,4.6,3.7,2,5.2,2.8,5.2,7,0,5-.3,9.8.2,14.8,1.6,17.2,7.4,37.7,19,51,.8.9,23.2,29.2,25.7,25,1.7,2,4.3,2.8,6.4,4.5,3.3,2.8,6.6,5,9.3,8.4,5,6.3,9.2,13.6,10.5,21.6,1.1,6.9.4,15.1-3.5,21.1s-12.2,9.9-18.5,12.9c-8.3,3.9-16.6,4.3-25.6,3.3-4.4-.5-8.8-1.2-13.2-1.9-1.8-.3-4-.3-5.7-1-1.9-.7-2.5-1.6-4.3-1.6a21.956,21.956,0,0,1-3.6-.1c-1.8-.4-3.8-1.1-5.6-1.5a26.328,26.328,0,0,1-5.5-2.2c-1.7-.9-3.6-1-5.3-1.9-2.8-1.4-3.7-3.8-7.6-2.5-4.1,1.4-3.2,4.9-5.8,7.3-2.3,2.1-5.2.2-7.4-1.1a82.7,82.7,0,0,0-10.5-4.8,97.367,97.367,0,0,0-11.9-3.9c-4.4-1.2-9.3-1.4-13.5-3.1-3.7-1.5-5.3-4.3-8-7a13.415,13.415,0,0,0-10.7-3.6c-7.2.5-12.1,8.2-15.9,13.6a199.425,199.425,0,0,1-36.5,39.7c-6.8,5.7-14.4,10.5-21,16.3-2.8,2.5-4.8,4.8-8,6.6-4.3,2.4-8.2,5.5-12.3,8.2-16.1,10.7-27.9,26.2-23.4,46.5,2,9.1,6,15.6,13.5,21.1,3.4,2.5,6.5,4.6,10.8,4.4,4.1-.1,7.7-.3,5.3-5.1,3,.9,5.6,3.3,8.9,4.5a43.2,43.2,0,0,0,12.9,2.3c6.5.1,14.2-3.3,19.9-4.8,1.6-.4,4.7-1.1,6.5-2.6,1.4-1.2,1.1-2.6,3.3-3.2,2.9-.7,4,.1,6.7-1.6,4-2.5,8.3-4,12.4-6.3,5.6-3.1,10.9-6.7,16.4-9.9.7,2,5,14,7.7,8.3,2.3-5-5.2-9.4-.6-14.5,4.4-4.9,5.3.3,9.5,2.5,5.9,3.1,5-2.7,3.3-6.2-.7-1.4-2.1-3.5-1.7-5.1.8-3.1,3.3-1.3,5.3-1a9.118,9.118,0,0,0,8-2.5c2-1.8,5.2-3.3,6.4-5.6.6-1.2.7-2.7,1.2-4,.7-1.6,1.1-1.2,1.4-3.2a16.551,16.551,0,0,1-.3-3.2l1.5-.3c0-.1.1-2.1-.2-1.8.5-.7,1.5-1,2.1-2,.5-.9,0-2.6.3-3.6.4-2.1,1.7-3.8,2.6-5.7,2.1,8.9,1.5,18.1,3.5,26.9,1.6,7.3,5.4,13.8,9.7,19.8,2,2.8,4.7,4.7,6.8,7.4,1.8,2.2,2.7,4.2,5.3,5.5,1.8.9,3.7,1.3,5.5,2.1,1.2.5,3.8,2.7,4.9,2.7-.9,0,1.8.1,1.1,0,0,0-.3-1.2,0-1.2,4,3.7,8.1,3.8,12.7,6.1,2.1,1.1,2.9,1,5.1,1.4,2.9.5,5.3,2.2,8.1,2.3,4.3.3,9.1.8,13.5.7,1.2,0,3.5-.8,4.4.2.6.7-.6,5.8-.6,6.9-.8,12.1.8,24.9,6,36,4.2,9.2,8.8,20.1,16.3,27.1,8.3,7.8,20,13.3,31.1,15.4,12.3,2.3,24.5.6,36.9-.1a154.066,154.066,0,0,0,36.2-6.1,322.806,322.806,0,0,0,32.7-12.4c7.3-3.2,16.6-7.7,12.8-17.3-.9-2.3-4.5-8.8-7.7-5.6-2.8,2.8,1.9,8.1,4,9.9-16.1,11.2-35.6,14.9-54.3,18.9-10.3,2.2-20.5,2.1-31,2.1-8.9,0-17.8.3-26.6-1-8-1.1-17.3-3.2-23.3-9.1a96.376,96.376,0,0,1-16.4-21.1c-4.7-8.4-5.8-17.4-6.2-26.9a107.281,107.281,0,0,1,.1-15c.4-3.6,2.2-4,3.1-6.9,2.1,3,3.5,1.9,6.1.1,1.7,4.7.9,9.5.6,14.3a74.252,74.252,0,0,0,.9,14.1c1,7.9,4.8,16.2,9.6,22.6,2.2,2.9,5.4,4.1,8.4,6.1,3.8,2.5,7.7,4.9,11.6,7.2,7.4,4.3,15.5,8,23.8,8.6,2.9.2,5,1.7,8.5,1.5,2.1-.1,4.1-.8,6.2-.8,2.1.1,3.8.7,6,.6,8.8-.6,17.9-3.5,26.6-5.1,9.4-1.7,19-3.6,28-7,3.9-1.5,7.1-3.4,9.3-7.1,1.6-2.6,1.1-7.4,4.1-8.9-1.9-2.5-1.2-2.9.4-5.1.8-1,3.2-3.7.2-3.7.9-4-.6-7.8-1.3-11.6-.3-1.7-.2-4.2-1.2-5.6-.6-.8-1.6-.9-2.1-1.5a1.357,1.357,0,0,1-1.3-.7,1.048,1.048,0,0,1,.9-1.2c-.2-1.3.8-.8-.2-2.9a21.115,21.115,0,0,0-6.2-7.1c-2-1.6-3.5-4.5-5.8-5.3-3-1.1-6.2-2.3-9.4-3.4a44.413,44.413,0,0,0-22-2,68.828,68.828,0,0,0-10.2,2.4c-2,.6-5,2.3-6.7.5-.6-.6-1.8-6-1.8-6.5.3-2.3,5-3.2,6.8-4.1,2.6-1.2,7.5-2.6,9.2-5,.7-1-.1-5.4,0-5.5,1.1-.7,5.7,9.8,7,10.6,1.8,1,7-.3,8.8-.5,5.6-.6,11.4-1,16.9-2.3,10.6-2.6,21-6.6,31.2-10.1a271.467,271.467,0,0,0,56.1-26.5,96.336,96.336,0,0,0,22.6-19.1c2.8-3.4,4.8-7.3,7.7-10.6,3.3-3.8,2.3-7.2,3.8-12,3-9.6,6.7-18.4,8.3-28.4a151.162,151.162,0,0,0,1.9-31.5c-.9-20.8-1.9-40.4-11.1-59.5-8.4-17.5-19.2-34.6-32.1-49a60.779,60.779,0,0,0-9.8-9.2c-4-2.8-8.3-5-11.9-8.4-2.9-2.7-5.4-5.9-8.5-8.5-3.8-3.2-8.3-4.6-12.7-6.6-4.2-1.9-8.1-4.5-12.4-6.3a55.3,55.3,0,0,0-8.1-2.8c-2-.6-4.7-.6-6.6-1.6-2.9-1.7-6-6.5-7.9-9.3-2.8-4-4.3-8.7-5.7-13.3-1.6-5.7-3.1-11.4-4.7-17-.5-1.9-2.6-8.7,1.5-7.1,1.2.5,2.3,2.6,3.2,3.5a25.751,25.751,0,0,0,6,4.4c3.5,1.9,7.1,4.2,10.4,5.5,2.9,1.2,5.9,3.4,8.6,5,.4.2.5,1.1,1.1,1.3,1.3.6,2.1-1,3.3-.6,1.6.5,1.9,2,2.8,3.3,1.3,1.8,2,1.9,4,2.8,2.2,1,3.8,3,6,4,2.6,1.2,8.4.3,8.8,4.4,4.1-2.7,9.2,2.5,11.7,5.2,2.6-3.9,7.1.7,11-.6-2.1,3-1.8,2.7,1.6,3,2.9.3,4.6,2.2,7.4,3.3,2,.8,4.1,2,6.1,2.6,1.9.5,3.4-.6,5-.3,1.2.2,2.2,1.2,3.3,1.5,1.4.3,3.4.8,4.9,1.1,1.9.5,3.8,0,5.7.4,2.2.4,4.1,1.7,6.4,2.2,2.5.5,5.1.2,7.6.8,2.3.6,3.7,1.2,6,1.2,3.5,0,7.5.5,10.9.1,1.9-.2,2.9-1.2,5-.2,1.4.6,2.2,2.5,4.1,1.6-2-.8-.2-3.9,2-1.5.5-1.3.9-2.1,2.3-2.5-.1,1.3-.3,2.6,1.4,2.9.1-.9.3-1.8.4-2.8,3.7,2.8,4.5,3.8,8,.4-.1,1.1-.6,2.4.6,3.2.7-1.2,1.4-2.4,2.2-3.6,1.2,3.9,7.1,2.5,9.9,1.9,1.1-.3,4.1-.7,4.8-1.6.5-.6.4-1.1.6-1.5.2-.3-1.7-1.2-.1-1.7,1.2-.4,2.1,2.2,3.5,2.1,1.2-.1,1.8-2.2,2.7-2.6.1,0,.7.9,1.1.7.7-.3,1-1.1,1.8-1.4,1.6-.6,3.6-.5,5.4-1.2,2.2-.9,4.5-1.4,6.8-2.1,2.9-1,4.2-2.9,6.5-4.4.5-.4,1.1-.2,1.7-.4.7-.3,1.5-1.2,2.4-1.5a48.364,48.364,0,0,0,7.6-3.7c2.3-1.5,5.3-2.6,7.4-4.4,1.7-1.5,2.6-3.6,4.3-5.1,2.5-2.2,8.8-4.9,7.8-9.1,4.1.6,5.1-2,6.6-5,1.4-2.8,4.4-3.6,6.3-6.2.8-1.1,2.2-2.6,2.6-3.9.3-.7-.4-1.5-.2-2,.9-2.3,4.1-3.4,5.7-5.5,1.9-2.7,2.6-6.1,4.2-8.9.3-.5,1.1-.9,1.4-1.4.2-.4-.2-1.3,0-1.7.6-.9,1.4-1.2,2-2,1.4-1.9,1.6-4.7,2.9-6.9.3-.5,1.4-2.1,1.5-2.4a14.463,14.463,0,0,0,.5-3c.1-.4.8-2.5.9-2.8a23.533,23.533,0,0,1,1.6-2.1,20.744,20.744,0,0,0,2.9-9.8c.1-1.3-.4-2.7.1-4,.4-1.1,1.7-1.8,2.2-2.9,1.3-3,1.1-7.3,1.4-10.5.4-3.5,1.5-7,1.8-10.5.2-1.7-.6-3.2-.6-4.8.1-1.8,1-2.2,1.4-3.7.4-1.7-.2-3.7.2-5.6.3-1.7.8-3.3,1-5.1.4-4.6-.2-9.4-.4-14a16.245,16.245,0,0,1,.2-5.4c.4-1.4,1.9-3,1.9-4.5-.2-4.7-3.9-.6-6.1-1-2.5-.4-3-6-3.7-8.2-1.6-5.3-3.3-10.5-4.9-15.8,7.8-2,15.8-1.4,23.7-2a126.342,126.342,0,0,0,22.9-4.1c6.4-1.6,13.3-2.5,19.1-6,4.5-3.6,8.5-10,5.7-15.6Z" fill-rule="evenodd"/><path id="ink-3" data-name="ink" d="M68.305,182.887c3.1-1.6,2.3-3.8,4.6-5.9,12.7-11.6,27.7-21.7,42.7-30.1,15.8-8.8,33.5-12.5,49.7-20.3,2.2-1,5-2.7,4.2-5.6-.9-3.4-4.2-1.8-6.5-1-7.7,2.7-15.9,3.7-23.8,6.1-16.7,5-32.4,13.7-46.5,23.9a167.507,167.507,0,0,0-23.2,19.8c-2.6,2.7-6,5.9-6.7,9.7-.9,4.7,1.9,5.2,5.5,3.4" fill-rule="evenodd"/><path id="ink-4" data-name="ink" d="M116.605,485.787c-.1-4.3-4.7-2.7-7.1-2.1-9.7,2.3-18.4,4.1-26.9,9.5-15.9,10-28,25.2-35.8,42-1,2.2-5.2,9.3-1.9,11.4,2.2,1.4,3.6-2.7,4.4-4.2,4.2-7.7,9.8-14.4,15.5-21.1,12.6-14.8,27.7-24.2,45.8-31,2.1-.8,6-1.5,6-4.5" fill-rule="evenodd"/><path id="ink-5" data-name="ink" d="M652.505,381.187c-3.4-6.7-8.8-15.1-16.3-17.9-4.2-1.5-6.6,1-5.4,5.3,1,3.4,4.3,5,6.7,7.3,6.3,5.8,10.2,14.4,12.5,22.4,2.4,8.5,2.9,17.6,2.9,26.4,0,4.6-1.3,8.6-1.9,13.1-.3,1.8-.7,5.7,1.3,6.8,4.5,2.4,6.6-10.3,7-12.8a76.094,76.094,0,0,0,.1-26.5c-1.3-8.3-3.1-16.6-6.9-24.1" fill-rule="evenodd"/><path id="ink-6" data-name="ink" d="M639.705,56.887c1.8-2.5.5-5.9,1-8.7.6-3,2.3-5.9,3.7-8.5a171.788,171.788,0,0,1,10.3-16.3c3.8-5.4,8.5-10,12.5-15.1,1.4-1.7,3.8-4.2,3.2-6.3-1-3.4-3.1-1.7-4.7-.3a127.67,127.67,0,0,0-23.8,27.5c-3.1,4.8-6,10-7,15.7a20.588,20.588,0,0,0,.3,8.9c.6,1.7,2.3,6,4.5,3.1" fill-rule="evenodd"/><path id="ink-7" data-name="ink" d="M74.505,472.787c4.6-.4,9.2-.6,13.8-.8,3.4-.2,7.2,0,10.4-1.6,3.1-1.7,1.8-4.1-.8-4.5-1.5-.2-4,.8-5.7.9s-3.5,0-5.3,0c-5.1,0-10.6,0-15.5,1.7-1.6.6-4,1.4-4.7,3.3-1.4,3.9,5.7,1.2,7.8,1" fill-rule="evenodd"/><path id="ink-8" data-name="ink" d="M114.805,112.887c6.7-.8,13.1-2.8,19.7-4.1,6.3-1.2,7.3-6.1-.1-5.9-2.5,0-26.4,4.6-19.6,10" fill-rule="evenodd"/><path id="ink-9" data-name="ink" d="M666.205,359.987c-4.5-1.1-2.2,3.9-.8,5.4,2.6,2.8,4,5,4.7,8.8.4,2.2,0,7.2,1.9,8.9,1.8,1.7,2,.6,2.3-1.5,1-5.8-.9-19.8-8.1-21.6" fill-rule="evenodd"/><path id="ink-10" data-name="ink" d="M617.005,45.287c1.3-1.3-.1-7.2.1-8.9a28.514,28.514,0,0,1,1.3-5.8c.3-.9,1.8-4.3,1-5.3-1.1-1.4-3,1-3.6,1.9-1.9,3.1-2.4,8.3-2.1,11.8.1,1.3.8,8.9,3.3,6.3" fill-rule="evenodd"/><path id="ink-11" data-name="ink" d="M353.005,538.987c.2-3.3,3.4-5.6,3.4-9.1,0-4-2.7-5.7-6-3.1-2,1.6-3.6,5.3-6.3,5.8-5.4,1-7.6-8.8-12.9-7.6-4.6,1-2.2,8.9-.8,11.6,1.5,2.8,4.2,4.8,3.3,8.3-1,4.2-4.6,6.6-3.2,11.3,2.6,8.8,8.2.6,11.5-2.2,2.4-2,3.8-1.6,6.2.3a35.389,35.389,0,0,0,9.5,6.2c3.4,1.6,6.7,2.7,6.8-2.6.1-4.2-3.1-8.3-5.8-11.1-2.2-2.3-5.9-4.1-5.7-7.8" fill-rule="evenodd"/><path id="ink-12" data-name="ink" d="M293.205,525.787c-4-4.3-9,6.6-12.3,7.8-5.2,1.9-6.4-8.5-11.2-8.2-3.7.3-3.5,5.6-2.6,8.1.9,2.6,3.5,4.8,3.9,7.5.7,4.1-7.2,12.4-1.7,16.4,4.7,3.4,6.4-8.1,12.2-3.4,2.9,2.3,10.9,10.9,14.8,6.6,4.7-5.1-6.5-13.7-8.5-17.5-2.6-5.2,11.3-11,5.4-17.3" fill-rule="evenodd"/><path id="ink-13" data-name="ink" d="M389.905,377.987c-1.1-.5-3,.3-4.2.3-1.3-.1-2.7-.7-4-.9-2.9-.5-7.9.2-9.9-2.3-2.1-2.6-.5-7.8-1.4-10.9-.5-1.7-1-3.8-3.3-3.1-2.7.9-2.6,5.8-2.9,8-.5,3.2-.9,5.6-4.1,6.7-2.4.8-4.9.4-6.8,2.4-1.4,1.4-2.4,4-1.3,5.9,1.7,2.8,5.2,1.4,7.7,2.2,3.8,1.4,2.9,7.5,3.7,11.1.5,2.3,1.6,8.7,4.9,8.6,4.5-.1,2.7-9.1,2.5-11.7-.3-2.7-.8-4.9,2.1-5.7,2.5-.7,6,.6,8.6.6,3.3,0,7.1-.8,9.1-3.8,1-1.9,1.8-6.4-.7-7.4" fill-rule="evenodd"/><path id="ink-14" data-name="ink" d="M553.905,488.287c7.1.6,2.8,9.4,7.5,12.8,4.5,3.3,5.1-5.8,5.1-8.4,0-6.3,7.7-4,12.4-5,4-.9,8.4-5,3.6-8.6-3.4-2.6-9.2-1.4-13.2-2-5.4-.9-3.8-4.5-3.9-8.7,0-1.5-.6-7-2.5-7.4-3.6-.8-3.8,9.4-4.1,11.3-1,8.2-6.6,3.2-11.1,7.3-5.9,5.3,2,8.4,6.2,8.7" fill-rule="evenodd"/><path id="ink-15" data-name="ink" d="M216.505,335.787c-11.1,9.1-23.7,7.8-33.8-2-4.3-4.1-6.9-8.3-6.5-14.4.3-5.4,1.9-11.5,6.3-15.1,3.7-3.1,10.6-4.2,15.2-4.6,6.5-.6,12.3,2.9,16.9,7.4,3.9,3.9,8.5,8.8,9.1,14.5.6,6-2.8,10.6-7.2,14.2m1.7-36.1c-9.9-9.6-27.6-8.6-37.8.1-11.5,9.8-13.5,28.2-2.4,39,11.7,11.3,27.1,10.1,39.4.7a27.314,27.314,0,0,0,11.1-19.8c.8-7.9-4.9-14.8-10.3-20" fill-rule="evenodd"/><path id="ink-16" data-name="ink" d="M410.405,134.887c-1.1,3.6-.3,7.5-.1,11.2-3.2-2-5.1-5.5-8.5-7.1-1.6,4.5,6.5,17.3,11.6,13.1,4.6-3.9,1.1-14.7-3-17.2" fill-rule="evenodd"/><path id="ink-17" data-name="ink" d="M427.005,156.987c-2.5.9-4.8.7-7.3,1.2-1.6.3-1.8-.6-2.1,1.3-.5,4,6,5.5,8.9,5.5,3.5-.1,7.4-2.4,7.1-6.3-.4-4.2-3.9-2.7-6.6-1.7" fill-rule="evenodd"/><path id="ink-18" data-name="ink" d="M429.005,140.187c-1.1-1-3.8-4.9-5.7-4.3-1.5.5-.4,2.3,0,3.2,1.6,3.3,4.8,6.1,7.3,8.8-1.9.7-5.5,1.1-4.5,4,.9,2.7,4.9,2.3,6.8,1.1,6.5-3.8-.6-9.8-3.9-12.8" fill-rule="evenodd"/><path id="ink-19" data-name="ink" d="M435.605,133.887c.4,1.8.7,3.6-.3,5.3l-5.5-9.8c-4.4,1.8,3.3,15.9,7.8,14.3,3.1-1.1,1.6-7.7,1.1-9.8-.3-1.1-.9-4.7-2.4-5-3-.7-1,3.7-.7,5" fill-rule="evenodd"/><path id="ink-20" data-name="ink" d="M210.705,331.087c-2.5-1.9-6.7,2.5-9.4,2.5-5.4,0-2.5-6.3-5.8-8.4-1.8-1.1-9.1,0-8-4.4.7-2.7,3.4-.7,4.9-2.4,1.9-2-.8-3.7-2.5-4.5.7-1,5-1.4,6-.7,1.8,1.2,1.7,4.7,3.4,6.5,2.2-2.8,1-6.3,3.3-8.8.9-1,3.5-1.7,2.5-3.4-.6-1-3.2-.7-4.1-1.5-.8-.7-.7-3-2-3.1-2.1-.3-2,2.8-2.6,3.7-1.9,2.7-10,1.8-6.6,7.3-2.3-1.1-8.4-2-7.2,1.9.3,1,1.5,1.6,1.8,2.8.3,1-.3,2.4-.4,3.4-.1,1.9-.2,4.1,1.1,5.6,1.9,2.1,4.5.6,6.5,1.5,2.8,1.2,1.8,3.8,3.3,6.1,1.9,2.9,4.9,2,7.7,1.1,3.3-1.1,3.8-1.2,6.2,1.6,1.2-1.5,4.2-5.1,1.9-6.8" fill-rule="evenodd"/><path id="ink-21" data-name="ink" d="M215.105,319.687c-2.6-.5-1.6-8.3-4.8-4.9-1.2,1.3,0,3.8-1.3,5.1-.9.9-2,.4-2.9,1-.8.5-1,1.6-1.5,2.4a6.674,6.674,0,0,0,4.8.5c0,1.4-.9,5.4,1.4,5.1,2.2-.3,1.6-4.3,2.7-5.6s5.6-.7,6.1-2.5c.4-2.2-3.3-.9-4.5-1.1" fill-rule="evenodd"/></g></g></svg>